<svg width="486" height="86" viewBox="0 0 486 86" fill="none" xmlns="http://www.w3.org/2000/svg">
<path d="M485.927 45.408C485.927 50.656 484.743 55.296 482.375 59.328C480.071 63.296 476.935 66.4 472.967 68.64C469.063 70.88 464.679 72 459.815 72C454.951 72 450.535 70.88 446.567 68.64C442.663 66.4 439.527 63.296 437.159 59.328C434.855 55.296 433.703 50.656 433.703 45.408C433.703 40.16 434.855 35.552 437.159 31.584C439.527 27.552 442.663 24.416 446.567 22.176C450.535 19.872 454.951 18.72 459.815 18.72C464.679 18.72 469.063 19.872 472.967 22.176C476.935 24.416 480.071 27.552 482.375 31.584C484.743 35.552 485.927 40.16 485.927 45.408ZM474.407 45.408C474.407 42.144 473.735 39.328 472.391 36.96C471.111 34.528 469.351 32.64 467.111 31.296C464.935 29.952 462.503 29.28 459.815 29.28C457.127 29.28 454.663 29.952 452.423 31.296C450.247 32.64 448.487 34.528 447.143 36.96C445.863 39.328 445.223 42.144 445.223 45.408C445.223 48.608 445.863 51.424 447.143 53.856C448.487 56.224 450.247 58.08 452.423 59.424C454.663 60.768 457.127 61.44 459.815 61.44C462.503 61.44 464.935 60.768 467.111 59.424C469.351 58.08 471.111 56.224 472.391 53.856C473.735 51.424 474.407 48.608 474.407 45.408Z" fill="white"/>
<path d="M409.076 18.72C412.724 18.72 415.892 19.104 418.58 19.872C421.332 20.64 423.444 21.728 424.916 23.136C426.452 24.48 427.22 26.112 427.22 28.032C427.22 29.312 426.836 30.528 426.068 31.68C425.3 32.768 424.18 33.312 422.708 33.312C421.684 33.312 420.82 33.184 420.116 32.928C419.476 32.608 418.9 32.224 418.388 31.776C417.876 31.328 417.268 30.912 416.564 30.528C415.924 30.144 414.932 29.856 413.588 29.664C412.308 29.408 411.348 29.28 410.708 29.28C407.444 29.28 404.66 29.984 402.356 31.392C400.116 32.8 398.388 34.72 397.172 37.152C395.956 39.52 395.348 42.272 395.348 45.408C395.348 48.48 395.956 51.232 397.172 53.664C398.452 56.032 400.18 57.92 402.356 59.328C404.596 60.736 407.156 61.44 410.036 61.44C411.636 61.44 413.012 61.344 414.164 61.152C415.316 60.96 416.276 60.672 417.044 60.288C417.94 59.776 418.74 59.232 419.444 58.656C420.148 58.08 421.204 57.792 422.612 57.792C424.276 57.792 425.556 58.336 426.452 59.424C427.348 60.448 427.796 61.728 427.796 63.264C427.796 64.864 426.9 66.336 425.108 67.68C423.316 68.96 420.948 70.016 418.004 70.848C415.124 71.616 411.988 72 408.596 72C403.54 72 399.156 70.848 395.444 68.544C391.732 66.176 388.852 62.976 386.804 58.944C384.82 54.912 383.828 50.4 383.828 45.408C383.828 40.16 384.884 35.552 386.996 31.584C389.172 27.552 392.148 24.416 395.924 22.176C399.764 19.872 404.148 18.72 409.076 18.72Z" fill="white"/>
<path d="M374.388 65.184C374.388 66.848 373.844 68.256 372.756 69.408C371.668 70.496 370.292 71.04 368.628 71.04C366.964 71.04 365.588 70.496 364.5 69.408C363.412 68.256 362.868 66.848 362.868 65.184V26.856C362.868 25.192 363.412 23.816 364.5 22.728C365.588 21.576 366.964 21 368.628 21C370.292 21 371.668 21.576 372.756 22.728C373.844 23.816 374.388 25.192 374.388 26.856V65.184ZM368.532 13.44C366.356 13.44 364.82 13.088 363.924 12.384C363.028 11.68 362.58 10.432 362.58 8.63999V6.81599C362.58 4.95999 363.06 3.71199 364.02 3.07199C365.044 2.36799 366.58 2.01599 368.628 2.01599C370.868 2.01599 372.436 2.36799 373.332 3.07199C374.228 3.77599 374.676 5.02399 374.676 6.81599V8.63999C374.676 10.496 374.196 11.776 373.236 12.48C372.276 13.12 370.708 13.44 368.532 13.44Z" fill="white"/>
<path d="M324.835 20.64H368.624C370.16 20.64 371.44 21.152 372.464 22.176C373.488 23.2 374 24.48 374 26.016C374 27.488 373.488 28.736 372.464 29.76C371.44 30.72 370.16 31.2 368.624 31.2H324.835C323.299 31.2 322.019 30.688 320.995 29.664C319.971 28.64 319.459 27.36 319.459 25.824C319.459 24.352 319.971 23.136 320.995 22.176C322.019 21.152 323.299 20.64 324.835 20.64ZM335.107 8.64001C336.771 8.64001 338.115 9.21601 339.139 10.368C340.227 11.456 340.771 12.832 340.771 14.496V57.216C340.771 58.112 340.931 58.848 341.251 59.424C341.635 60 342.115 60.416 342.691 60.672C343.331 60.928 344.003 61.056 344.707 61.056C345.475 61.056 346.179 60.928 346.819 60.672C347.459 60.352 348.195 60.192 349.027 60.192C349.923 60.192 350.723 60.608 351.427 61.44C352.195 62.272 352.579 63.424 352.579 64.896C352.579 66.688 351.587 68.16 349.603 69.312C347.683 70.464 345.603 71.04 343.363 71.04C342.019 71.04 340.515 70.944 338.851 70.752C337.251 70.496 335.715 69.952 334.243 69.12C332.835 68.224 331.651 66.88 330.691 65.088C329.731 63.296 329.251 60.832 329.251 57.696V14.496C329.251 12.832 329.795 11.456 330.883 10.368C332.035 9.21601 333.443 8.64001 335.107 8.64001Z" fill="white"/>
<path d="M297.232 18.72C300.88 18.72 304.048 19.104 306.736 19.872C309.488 20.64 311.6 21.728 313.072 23.136C314.608 24.48 315.376 26.112 315.376 28.032C315.376 29.312 314.992 30.528 314.224 31.68C313.456 32.768 312.336 33.312 310.864 33.312C309.84 33.312 308.976 33.184 308.272 32.928C307.632 32.608 307.056 32.224 306.544 31.776C306.032 31.328 305.424 30.912 304.72 30.528C304.08 30.144 303.088 29.856 301.744 29.664C300.464 29.408 299.504 29.28 298.864 29.28C295.6 29.28 292.816 29.984 290.512 31.392C288.272 32.8 286.544 34.72 285.328 37.152C284.112 39.52 283.504 42.272 283.504 45.408C283.504 48.48 284.112 51.232 285.328 53.664C286.608 56.032 288.336 57.92 290.512 59.328C292.752 60.736 295.312 61.44 298.192 61.44C299.792 61.44 301.168 61.344 302.32 61.152C303.472 60.96 304.432 60.672 305.2 60.288C306.096 59.776 306.896 59.232 307.6 58.656C308.304 58.08 309.36 57.792 310.768 57.792C312.432 57.792 313.712 58.336 314.608 59.424C315.504 60.448 315.952 61.728 315.952 63.264C315.952 64.864 315.056 66.336 313.264 67.68C311.472 68.96 309.104 70.016 306.16 70.848C303.28 71.616 300.144 72 296.752 72C291.696 72 287.312 70.848 283.6 68.544C279.888 66.176 277.008 62.976 274.96 58.944C272.976 54.912 271.984 50.4 271.984 45.408C271.984 40.16 273.04 35.552 275.152 31.584C277.328 27.552 280.304 24.416 284.08 22.176C287.92 19.872 292.304 18.72 297.232 18.72Z" fill="white"/>
<path d="M256.152 19.68C257.816 19.68 259.192 20.256 260.28 21.408C261.368 22.496 261.912 23.872 261.912 25.536V49.92C261.912 56.704 260.024 62.08 256.248 66.048C252.472 70.016 247.032 72 239.928 72C232.824 72 227.384 70.016 223.608 66.048C219.896 62.08 218.04 56.704 218.04 49.92V25.536C218.04 23.872 218.584 22.496 219.672 21.408C220.76 20.256 222.136 19.68 223.8 19.68C225.464 19.68 226.84 20.256 227.928 21.408C229.016 22.496 229.56 23.872 229.56 25.536V49.92C229.56 53.824 230.424 56.736 232.152 58.656C233.88 60.512 236.472 61.44 239.928 61.44C243.448 61.44 246.072 60.512 247.8 58.656C249.528 56.736 250.392 53.824 250.392 49.92V25.536C250.392 23.872 250.936 22.496 252.024 21.408C253.112 20.256 254.488 19.68 256.152 19.68Z" fill="white"/>
<path d="M198.307 0C199.971 0 201.347 0.543999 202.435 1.632C203.523 2.72 204.067 4.128 204.067 5.856V65.184C204.067 66.848 203.523 68.256 202.435 69.408C201.347 70.496 199.971 71.04 198.307 71.04C196.643 71.04 195.267 70.496 194.179 69.408C193.091 68.256 192.547 66.848 192.547 65.184V60.48L194.659 61.344C194.659 62.176 194.211 63.2 193.315 64.416C192.419 65.568 191.203 66.72 189.667 67.872C188.131 69.024 186.307 70.016 184.195 70.848C182.147 71.616 179.907 72 177.475 72C173.059 72 169.059 70.88 165.475 68.64C161.891 66.336 159.043 63.2 156.931 59.232C154.883 55.2 153.859 50.592 153.859 45.408C153.859 40.16 154.883 35.552 156.931 31.584C159.043 27.552 161.859 24.416 165.379 22.176C168.899 19.872 172.803 18.72 177.091 18.72C179.843 18.72 182.371 19.136 184.675 19.968C186.979 20.8 188.963 21.856 190.627 23.136C192.355 24.416 193.667 25.728 194.563 27.072C195.523 28.352 196.003 29.44 196.003 30.336L192.547 31.584V5.856C192.547 4.192 193.091 2.816 194.179 1.72799C195.267 0.575998 196.643 0 198.307 0ZM178.915 61.44C181.731 61.44 184.195 60.736 186.307 59.328C188.419 57.92 190.051 56 191.203 53.568C192.419 51.136 193.027 48.416 193.027 45.408C193.027 42.336 192.419 39.584 191.203 37.152C190.051 34.72 188.419 32.8 186.307 31.392C184.195 29.984 181.731 29.28 178.915 29.28C176.163 29.28 173.731 29.984 171.619 31.392C169.507 32.8 167.843 34.72 166.627 37.152C165.475 39.584 164.899 42.336 164.899 45.408C164.899 48.416 165.475 51.136 166.627 53.568C167.843 56 169.507 57.92 171.619 59.328C173.731 60.736 176.163 61.44 178.915 61.44Z" fill="white"/>
<path d="M62.6438 71.04C60.9798 71.04 59.6038 70.496 58.5158 69.408C57.4278 68.256 56.8838 66.848 56.8838 65.184V25.536C56.8838 23.872 57.4278 22.496 58.5158 21.408C59.6038 20.256 60.9798 19.68 62.6438 19.68C64.3078 19.68 65.6838 20.256 66.7718 21.408C67.8598 22.496 68.4038 23.872 68.4038 25.536V34.56L67.7318 28.128C68.4358 26.592 69.3318 25.248 70.4198 24.096C71.5718 22.88 72.8518 21.888 74.2598 21.12C75.6678 20.288 77.1718 19.68 78.7718 19.296C80.3718 18.912 81.9718 18.72 83.5718 18.72C85.4918 18.72 87.0918 19.264 88.3718 20.352C89.7158 21.44 90.3878 22.72 90.3878 24.192C90.3878 26.304 89.8438 27.84 88.7558 28.8C87.6678 29.696 86.4838 30.144 85.2038 30.144C83.9878 30.144 82.8678 29.92 81.8438 29.472C80.8838 29.024 79.7638 28.8 78.4838 28.8C77.3318 28.8 76.1478 29.088 74.9318 29.664C73.7798 30.176 72.6918 31.008 71.6678 32.16C70.7078 33.312 69.9078 34.752 69.2678 36.48C68.6918 38.144 68.4038 40.128 68.4038 42.432V65.184C68.4038 66.848 67.8598 68.256 66.7718 69.408C65.6838 70.496 64.3078 71.04 62.6438 71.04Z" fill="white"/>
<path fillRule="evenodd" clipRule="evenodd" d="M122 18C107.088 18 95 30.0883 95 45C95 59.9117 107.088 72 122 72C136.912 72 149 59.9117 149 45C149 30.0883 136.912 18 122 18ZM120.369 32H129.33C133.048 32 134.938 33.8902 134.938 37.6075V46.5687C134.938 46.9341 134.938 47.3014 134.816 47.6668V47.728L134.816 47.7281C134.755 47.7893 134.755 47.7893 134.755 47.8498C134.571 48.154 134.328 48.4589 134.023 48.7631L122.259 60.5883C120.43 62.4172 117.444 62.4172 115.614 60.5883L106.349 51.3229C104.581 49.4939 104.52 46.5687 106.349 44.7391L118.236 32.8533C118.48 32.5484 118.785 32.3055 119.15 32.1224C119.516 32 119.943 32 120.369 32ZM128.172 38.8274C129.025 39.6794 130.488 39.7406 131.402 38.8274C132.316 37.9729 132.377 36.3888 131.463 35.473C130.488 34.5598 128.964 34.5598 128.111 35.5342C127.197 36.45 127.258 37.9136 128.111 38.7662C127.929 38.5838 127.684 38.3396 128.111 38.8274H128.172Z" fill="white"/>
<path d="M25.2832 18C29.5427 18 33.3459 19.0953 36.6926 21.2859C40.1002 23.4157 42.7776 26.3669 44.7248 30.1396C46.7329 33.9123 47.7369 38.2935 47.7369 43.2832C47.7369 48.2729 46.7329 52.6846 44.7248 56.5181C42.7776 60.2908 40.1306 63.2725 36.7839 65.4631C33.498 67.5928 29.7861 68.6577 25.6483 68.6577C23.2143 68.6577 20.9324 68.2622 18.8027 67.4711C16.6729 66.6801 14.7866 65.6761 13.1436 64.4591C11.5615 63.2421 10.3141 62.0251 9.40134 60.8081C8.54944 59.5302 8.12349 58.4653 8.12349 57.6134L10.953 56.4268V80.4322C10.953 82.0143 10.4358 83.3226 9.40134 84.357C8.36689 85.4523 7.05861 86 5.47651 86C3.89441 86 2.58613 85.4828 1.55168 84.4483C0.517226 83.4139 0 82.0752 0 80.4322V24.4805C0 22.8984 0.517226 21.5902 1.55168 20.5557C2.58613 19.4604 3.89441 18.9128 5.47651 18.9128C7.05861 18.9128 8.36689 19.4604 9.40134 20.5557C10.4358 21.5902 10.953 22.8984 10.953 24.4805V28.953L9.40134 28.1315C9.40134 27.3405 9.82729 26.3973 10.6792 25.302C11.5311 24.1459 12.6872 23.0201 14.1477 21.9248C15.6081 20.7687 17.2814 19.8255 19.1678 19.0953C21.115 18.3651 23.1535 18 25.2832 18ZM23.9141 28.0403C21.2367 28.0403 18.894 28.7096 16.8859 30.0483C14.8779 31.387 13.2957 33.2125 12.1396 35.5248C11.0443 37.7763 10.4966 40.3624 10.4966 43.2832C10.4966 46.1432 11.0443 48.7597 12.1396 51.1329C13.2957 53.4452 14.8779 55.2707 16.8859 56.6094C18.894 57.9481 21.2367 58.6175 23.9141 58.6175C26.5915 58.6175 28.9038 57.9481 30.851 56.6094C32.8591 55.2707 34.4107 53.4452 35.506 51.1329C36.6622 48.7597 37.2403 46.1432 37.2403 43.2832C37.2403 40.3624 36.6622 37.7763 35.506 35.5248C34.4107 33.2125 32.8591 31.387 30.851 30.0483C28.9038 28.7096 26.5915 28.0403 23.9141 28.0403Z" fill="white"/>
</svg>
