<svg width="40" height="40" viewBox="0 0 40 40" fill="none" xmlns="http://www.w3.org/2000/svg">
<g clip-path="url(#clip0_154_1603)">
<path fill-rule="evenodd" clip-rule="evenodd" d="M20 0C8.95431 0 0 8.95431 0 20C0 31.0457 8.95431 40 20 40C31.0457 40 40 31.0457 40 20C40 8.95431 31.0457 0 20 0ZM18.7919 10.3704H25.4294C28.1839 10.3704 29.5835 11.7705 29.5835 14.524V21.162C29.5835 21.4327 29.5835 21.7047 29.4933 21.9754V22.0208C29.448 22.0661 29.448 22.0661 29.448 22.111C29.3119 22.3363 29.1319 22.5621 28.9061 22.7875L20.1916 31.5469C18.8368 32.9017 16.6251 32.9017 15.2698 31.5469L8.40657 24.6836C7.09712 23.3288 7.05177 21.162 8.40657 19.8067L17.2118 11.0024C17.3923 10.7766 17.6185 10.5966 17.8892 10.4611C18.1599 10.3704 18.4764 10.3704 18.7919 10.3704ZM24.5715 15.4277C25.2036 16.0588 26.2872 16.1042 26.9646 15.4277C27.6416 14.7947 27.6864 13.6213 27.01 12.943C26.2872 12.2665 25.1587 12.2665 24.5267 12.9883C23.8493 13.6667 23.8946 14.7508 24.5267 15.3824C24.3916 15.2473 24.2102 15.0663 24.5267 15.4277H24.5715Z" fill="#B74DDA"/>
</g>
<defs>
<clipPath id="clip0_154_1603">
<rect width="40" height="40" fill="white"/>
</clipPath>
</defs>
</svg>
