<svg width="80" height="80" viewBox="0 0 80 80" fill="none" xmlns="http://www.w3.org/2000/svg">
<g clip-path="url(#clip0_154_1607)">
<rect width="80" height="80" fill="white"/>
<path fillRule="evenodd" clipRule="evenodd" d="M40 0C17.9086 0 0 17.9086 0 40C0 62.0914 17.9086 80 40 80C62.0914 80 80 62.0914 80 40C80 17.9086 62.0914 0 40 0ZM37.5839 20.7407H50.8588C56.3677 20.7407 59.1671 23.541 59.1671 29.0481V42.324C59.1671 42.8653 59.1671 43.4095 58.9866 43.9508V44.0415C58.8959 44.1322 58.8959 44.1322 58.8959 44.222C58.6238 44.6726 58.2639 45.1242 57.8123 45.5749L40.3832 63.0937C37.6736 65.8033 33.2502 65.8033 30.5397 63.0937L16.8131 49.3672C14.1942 46.6576 14.1035 42.324 16.8131 39.6134L34.4236 22.0048C34.7845 21.5532 35.2371 21.1933 35.7784 20.9221C36.3198 20.7407 36.9528 20.7407 37.5839 20.7407ZM49.1431 30.8554C50.4072 32.1176 52.5745 32.2083 53.9293 30.8554C55.2831 29.5894 55.3729 27.2426 54.02 25.8859C52.5745 24.533 50.3174 24.533 49.0533 25.9766C47.6985 27.3333 47.7892 29.5016 49.0533 30.7647C48.7831 30.4945 48.4203 30.1327 49.0533 30.8554H49.1431Z" fill="#B74DDA"/>
</g>
<defs>
<clipPath id="clip0_154_1607">
<rect width="80" height="80" fill="white"/>
</clipPath>
</defs>
</svg>
